#!OML:ASF F:\VICON\USERDATA\INSTALL\rory3\rory3.ASF
:FULLY-SPECIFIED
:DEGREES
130
root 0.6524050528201304 17.848508392254757 64.3665426605316 -1.3121916232901212 -1.6476114097680012 -2.5303789809242656
lfemur -13.509711550730675 -2.978290456854136 -16.341720698717427
ltibia 33.912208663046684
lfoot -0.1240472578957661 3.195299968612482
ltoes -6.642513283631343
rfemur -8.905055784229273 4.620062223259053 27.1296709926944
rtibia 27.88433900596547
rfoot -6.099787031593204 -4.460682807291173
rtoes 3.810993209790606
lowerback 10.593334030894987 0.04274572240424693 1.5999745753645778
upperback -0.19644704324727233 0.38133788414186237 1.9252620272389682
thorax -5.827988393209787 0.15514901257724784 1.5655650957198062
lowerneck -16.15615108477195 -3.070300009661442 -3.4379853511141034
upperneck 22.18409421858332 -3.7581077490189747 1.5534667438354135
head 9.6737368871939 -1.8316740012750843 0.7225798260618513
lclavicle -2.0280249427897672e-15 -7.127479640513121e-16
lhumerus -34.39875625825153 3.8270963795724167 81.52733026333077
lradius 26.7704622107167
lwrist 9.818382302760618
lhand -30.59532893264065 16.48332534515388
lfingers 7.12502
lthumb -3.5735038410244493 46.81516668014172
rclavicle -2.0283028976702706e-15 -7.129119381392526e-16
rhumerus -28.424878449892777 -20.364616483285506 -75.68179483360105
rradius 21.151030974332112
rwrist 6.558418257065909
rhand -17.331920599321187 22.087489247003067
rfingers 7.12502
rthumb 7.97481393026964 -7.169444426155551
131
root 0.6554852973846903 17.820405302884673 64.37082032641584 -1.351253549446626 -1.63152224201743 -2.53405103233979
lfemur -13.749182798443767 -2.925510357509316 -16.372175818416366
ltibia 31.9068741119858
lfoot -1.9244850139625784 3.1840409460877623
ltoes -6.6396675263783616
rfemur -9.413438108319951 4.489323622838649 26.76268594804606
rtibia 29.503759634393134
rfoot -4.350643135416986 -4.443771072117704
rtoes 6.571661968225625
lowerback 10.610878263599405 0.06026928143385535 1.6920724336891853
upperback -0.2164183716622523 0.4366322894590833 1.8804688356994614
thorax -5.893570207585338 0.18194455395831216 1.5951793342118792
lowerneck -16.15300198675682 -3.0694666367098806 -3.425847403753362
upperneck 22.178470323840163 -3.752971791875728 1.5418979403666573
head 9.677059573134619 -1.829969176719133 0.7184277477772567
lclavicle -2.0277213282986494e-15 -7.125524323588016e-16
lhumerus -34.475943652516435 4.352334958572701 81.32503197587539
lradius 25.929480982849473
lwrist 9.093413188933976
lhand -30.439322635760476 16.49711764468271
lfingers 7.12502
lthumb -3.3777617857771833 46.83876383742894
rclavicle -2.0287450923675978e-15 -7.131942812369471e-16
rhumerus -28.404570861365784 -20.389686247574588 -75.63961077927361
rradius 21.045076897745687
rwrist 6.5390402663269835
rhand -17.383151757214712 22.10228160597989
rfingers 7.12502
rthumb 7.956890375635975 -7.163679086803543
132
root 0.6654733378802965 17.792134631990194 64.49974337791235 -1.3111568361784265 -1.7314142174772176 -2.378354302980716
lfemur -13.771612206400679 -2.781101203562231 -16.61464298558898
ltibia 30.351376576996618
lfoot -3.6913574680873777 3.2919531814390988
ltoes -5.434832604298798
rfemur -10.05184811043915 4.502295315879374 26.386986108795764
rtibia 31.377010546842683
rfoot -2.41671495908186 -4.594989559515534
rtoes 9.473821755255779
lowerback 10.57981897127076 0.15641079857763612 1.605231625232006
upperback -0.23826525720337313 0.5440316746106787 1.8190111458632725
thorax -5.908358562593349 0.24681742294983816 1.6248632707408546
lowerneck -16.167192096294478 -3.0777540378914816 -3.414674199785761
upperneck 22.164966241235998 -3.7658749682695527 1.555713137792484
head 9.67573298512447 -1.834910461392837 0.7179333654052429
lclavicle -2.0279613645635194e-15 -7.127040332301794e-16
lhumerus -34.420852580558424 4.724210185636504 81.0943297473338
lradius 25.262489039452063
lwrist 8.526976346527912
lhand -30.470778976893367 16.426226061348018
lfingers 7.12502
lthumb -3.412463141830079 46.71811027773278
rclavicle -2.0277519588092092e-15 -7.125601189326066e-16
rhumerus -28.42523224589073 -20.30247144188125 -75.69059863141877
rradius 21.067424953752194
rwrist 6.315931824139434
rhand -17.47147145981973 22.112808619063784
rfingers 7.12502
rthumb 7.868923845190673 -7.259218466397445
133
root 0.6695618835531577 17.776816247625792 64.47727574403987 -1.3222741372505349 -1.646798153524386 -2.4239352500643294
lfemur -13.760300295942926 -2.718572642551515 -16.72275190863577
ltibia 29.93053502274435
lfoot -5.493539883911862 3.0520343910646064
ltoes -4.360950335577646
rfemur -10.756709512704054 4.380383738823815 26.18164145286315
rtibia 33.03014405904228
rfoot -0.46303710903695805 -5.142725651164721
rtoes 11.744225257262334
lowerback 10.618243549796587 0.150932897810382 1.7047865118717345
upperback -0.2949461643147949 0.5842061598212084 1.8187723805401828
thorax -5.976097968082438 0.2664315567292831 1.5757731059016034
lowerneck -16.164199393239052 -3.0844715300948966 -3.415028718276112
upperneck 22.137534099310844 -3.7776542424057746 1.5419310887979552
head 9.665185220985643 -1.8397625766182086 0.7112310373184605
lclavicle -2.0276688394078754e-15 -7.125168576118797e-16
lhumerus -34.29929714543251 4.977409261079286 80.76297615986108
lradius 24.596745439546645
lwrist 7.7683305930671915
lhand -30.412627681502734 16.845608010247496
lfingers 7.12502
lthumb -3.3419462132929603 47.05138085994693
rclavicle -2.028361007270641e-15 -7.129490282587576e-16
rhumerus -28.601583363410604 -20.42755453018779 -75.64773262197356
rradius 21.101497749334246
rwrist 6.274691022277098
rhand -17.572312633627213 22.081340212921923
rfingers 7.12502
rthumb 7.786863933670674 -7.478062198752932
